<?xml version="1.0" encoding="utf-8"?>
<!-- Generator: Adobe Illustrator 19.2.0, SVG Export Plug-In . SVG Version: 6.00 Build 0)  -->
<svg version="1.1" id="Layer_1" xmlns="http://www.w3.org/2000/svg" xmlns:xlink="http://www.w3.org/1999/xlink" x="0px" y="0px"
	 viewBox="0 0 1796 1139" style="enable-background:new 0 0 1796 1139;" xml:space="preserve">
<style type="text/css">
	.st0{fill:#F3F3F5;}
	.st1{fill:#EE4441;stroke:#000000;stroke-width:4;stroke-linecap:round;stroke-linejoin:round;stroke-miterlimit:10;}
	.st2{fill:#CECECE;stroke:#CECECE;stroke-width:6;stroke-linecap:round;stroke-linejoin:round;stroke-miterlimit:10;}
	.st3{fill:#D0D0D2;stroke:#D0D0D2;stroke-width:6;stroke-linecap:round;stroke-linejoin:round;stroke-miterlimit:10;}
	.st4{fill:#EE4441;stroke:#000000;stroke-width:6;stroke-linecap:round;stroke-linejoin:round;stroke-miterlimit:10;}
	.st5{fill:#252C3F;stroke:#252C3F;stroke-width:6;stroke-linecap:round;stroke-linejoin:round;stroke-miterlimit:10;}
	.st6{fill:none;stroke:#000000;stroke-width:4;stroke-linecap:round;stroke-linejoin:round;stroke-miterlimit:10;}
	.st7{fill-rule:evenodd;clip-rule:evenodd;fill:none;stroke:#000000;stroke-width:6;stroke-linecap:round;stroke-miterlimit:10;}
	.st8{fill:#538ECA;stroke:#000000;stroke-width:6;stroke-linecap:round;stroke-linejoin:round;stroke-miterlimit:10;}
	.st9{fill:none;stroke:#000000;stroke-width:6;stroke-linecap:round;stroke-linejoin:round;stroke-miterlimit:10;}
	.st10{stroke:#000000;stroke-width:6;stroke-linecap:round;stroke-linejoin:round;stroke-miterlimit:10;}
	.st11{fill:#44619D;stroke:#000000;stroke-width:6;stroke-linecap:round;stroke-linejoin:round;stroke-miterlimit:10;}
	.st12{fill:#222534;stroke:#000000;stroke-width:6;stroke-linecap:round;stroke-linejoin:round;stroke-miterlimit:10;}
	.st13{fill:#A0B74E;stroke:#000000;stroke-width:6;stroke-linecap:round;stroke-linejoin:round;stroke-miterlimit:10;}
	.st14{fill:#F9BF1C;stroke:#000000;stroke-width:6;stroke-linecap:round;stroke-linejoin:round;stroke-miterlimit:10;}
	.st15{fill:#6FD6E2;stroke:#000000;stroke-width:6;stroke-linecap:round;stroke-linejoin:round;stroke-miterlimit:10;}
	.st16{fill:#538ECA;stroke:#000000;stroke-width:4;stroke-linecap:round;stroke-linejoin:round;stroke-miterlimit:10;}
	.st17{fill:#44619D;stroke:#000000;stroke-width:4;stroke-linecap:round;stroke-linejoin:round;stroke-miterlimit:10;}
	.st18{fill:#C4B397;stroke:#000000;stroke-width:6;stroke-linecap:round;stroke-linejoin:round;stroke-miterlimit:10;}
	.st19{fill:#F9BF1C;stroke:#000000;stroke-width:4;stroke-linecap:round;stroke-linejoin:round;stroke-miterlimit:10;}
	.st20{fill:#C4B397;stroke:#000000;stroke-width:4;stroke-linecap:round;stroke-linejoin:round;stroke-miterlimit:10;}
	.st21{fill:#9FA0A2;stroke:#000000;stroke-width:6;stroke-linecap:round;stroke-linejoin:round;stroke-miterlimit:10;}
	.st22{fill:#9FA0A2;stroke:#000000;stroke-width:4;stroke-linecap:round;stroke-linejoin:round;stroke-miterlimit:10;}
	.st23{fill:#252C3F;stroke:#000000;stroke-width:6;stroke-linecap:round;stroke-linejoin:round;stroke-miterlimit:10;}
	.st24{fill:#EE4441;}
	.st25{fill:#222534;}
	.st26{fill:#538ECA;}
	.st27{fill:#A0B74E;}
	.st28{fill:#F9BF1C;}
	.st29{fill:#6FD6E2;}
	.st30{fill:#44619D;}
	.st31{fill:#C4B397;}
	.st32{fill:#9FA0A2;}
	.st33{fill:#D0D0D2;}
	.st34{fill:#818286;}
	.st35{fill:#252C3F;}
	.st36{fill:#EE4441;stroke:#000000;stroke-width:6;stroke-linecap:round;stroke-miterlimit:10;}
	.st37{fill:#EE4441;stroke:#000000;stroke-width:4;stroke-linecap:round;stroke-miterlimit:10;}
	.st38{fill:#A0B74E;stroke:#000000;stroke-width:4;stroke-linecap:round;stroke-linejoin:round;stroke-miterlimit:10;}
	.st39{fill:#EE4441;stroke:#EE4441;stroke-width:6;stroke-linecap:round;stroke-linejoin:round;stroke-miterlimit:10;}
	.st40{stroke:#EE4441;stroke-width:6;stroke-linecap:round;stroke-linejoin:round;stroke-miterlimit:10;}
	.st41{fill:none;stroke:#EE4441;stroke-width:6;stroke-linecap:round;stroke-linejoin:round;stroke-miterlimit:10;}
	.st42{fill:#9FA0A2;stroke:#9FA0A2;stroke-width:4;stroke-linecap:round;stroke-linejoin:round;stroke-miterlimit:10;}
	.st43{fill:#252C3F;stroke:#252C3F;stroke-width:4;stroke-linecap:round;stroke-linejoin:round;stroke-miterlimit:10;}
	.st44{fill:#EE4441;stroke:#EE4441;stroke-width:4;stroke-linecap:round;stroke-linejoin:round;stroke-miterlimit:10;}
	.st45{fill:#252C3F;stroke:#000000;stroke-width:4;stroke-linecap:round;stroke-linejoin:round;stroke-miterlimit:10;}
	.st46{fill:none;}
	.st47{font-family:'Bryant-Bold';}
	.st48{font-size:18px;}
	.st49{fill:#F3F3F5;stroke:#F3F3F5;stroke-width:6;stroke-linecap:round;stroke-linejoin:round;stroke-miterlimit:10;}
	.st50{fill:#75767A;stroke:#000000;stroke-width:6;stroke-linecap:round;stroke-linejoin:round;stroke-miterlimit:10;}
	.st51{fill:#1C1F24;stroke:#1C1F24;stroke-width:6;stroke-linecap:round;stroke-linejoin:round;stroke-miterlimit:10;}
	.st52{fill:#E2E3E5;stroke:#E2E3E5;stroke-width:6;stroke-linecap:round;stroke-linejoin:round;stroke-miterlimit:10;}
	.st53{fill:#9FA0A2;stroke:#9FA0A2;stroke-width:6;stroke-linecap:round;stroke-linejoin:round;stroke-miterlimit:10;}
	.st54{fill:#75767A;stroke:#75767A;stroke-width:6;stroke-linecap:round;stroke-linejoin:round;stroke-miterlimit:10;}
	.st55{fill:#FBB519;stroke:#FBB519;stroke-width:6;stroke-linecap:round;stroke-linejoin:round;stroke-miterlimit:10;}
	.st56{fill:#A0B74E;stroke:#A0B74E;stroke-width:6;stroke-linecap:round;stroke-linejoin:round;stroke-miterlimit:10;}
	.st57{fill:#222534;stroke:#222534;stroke-width:6;stroke-linecap:round;stroke-linejoin:round;stroke-miterlimit:10;}
	.st58{fill:#FBB519;stroke:#F3F3F5;stroke-width:6;stroke-linecap:round;stroke-linejoin:round;stroke-miterlimit:10;}
	.st59{fill:#F3F3F5;stroke:#538ECA;stroke-width:6;stroke-linecap:round;stroke-linejoin:round;stroke-miterlimit:10;}
	.st60{fill:#538ECA;stroke:#EE4441;stroke-width:6;stroke-linecap:round;stroke-linejoin:round;stroke-miterlimit:10;}
	.st61{fill:#538ECA;stroke:#A0B74E;stroke-width:6;stroke-linecap:round;stroke-linejoin:round;stroke-miterlimit:10;}
	.st62{fill:#6FD6E2;stroke:#6FD6E2;stroke-width:6;stroke-linecap:round;stroke-linejoin:round;stroke-miterlimit:10;}
	.st63{fill:#FFFFFF;stroke:#F3F3F5;stroke-width:6;stroke-linecap:round;stroke-linejoin:round;stroke-miterlimit:10;}
	.st64{fill:#FBB519;}
	.st65{fill:#44619D;stroke:#44619D;stroke-width:6;stroke-linecap:round;stroke-linejoin:round;stroke-miterlimit:10;}
	.st66{fill:#FFFFFF;}
	.st67{fill:#FFFFFF;stroke:#EE4441;stroke-width:6;stroke-linecap:round;stroke-linejoin:round;stroke-miterlimit:10;}
	.st68{fill:#FFFFFF;stroke:#FFFFFF;stroke-width:6;stroke-linecap:round;stroke-miterlimit:10;}
	.st69{fill:#FFFFFF;stroke:#000000;stroke-width:6;stroke-linecap:round;stroke-linejoin:round;stroke-miterlimit:10;}
	.st70{enable-background:new    ;}
	.st71{font-size:28px;}
	.st72{fill:#818286;stroke:#818286;stroke-width:6;stroke-linecap:round;stroke-linejoin:round;stroke-miterlimit:10;}
	.st73{clip-path:url(#SVGID_2_);fill:#FFFFFF;}
	.st74{clip-path:url(#SVGID_2_);}
	.st75{clip-path:url(#SVGID_4_);}
	.st76{fill:#F3F3F5;stroke:#000000;stroke-width:4;stroke-linecap:round;stroke-linejoin:round;stroke-miterlimit:10;}
	.st77{fill:#D0D0D2;stroke:#000000;stroke-width:4;stroke-linecap:round;stroke-linejoin:round;stroke-miterlimit:10;}
	.st78{fill:#818286;stroke:#000000;stroke-width:4;stroke-linecap:round;stroke-linejoin:round;stroke-miterlimit:10;}
	.st79{fill:#CECECE;stroke:#000000;stroke-width:4;stroke-linecap:round;stroke-linejoin:round;stroke-miterlimit:10;}
	.st80{fill:#C9A779;}
	.st81{fill:none;stroke:#000000;stroke-width:6;stroke-linecap:round;stroke-miterlimit:10;}
	.st82{fill:#EE4441;stroke:#EE4441;stroke-width:5.99;stroke-linecap:round;stroke-linejoin:round;stroke-miterlimit:10;}
	.st83{fill:#FBB519;stroke:#FBB519;stroke-width:5.99;stroke-linecap:round;stroke-linejoin:round;stroke-miterlimit:10;}
	.st84{fill:#A0B74E;stroke:#A0B74E;stroke-width:5.99;stroke-linecap:round;stroke-linejoin:round;stroke-miterlimit:10;}
	.st85{fill:#FD5C63;stroke:#FD5C63;stroke-width:6;stroke-linecap:round;stroke-linejoin:round;stroke-miterlimit:10;}
	.st86{fill-rule:evenodd;clip-rule:evenodd;fill:#FFFFFF;}
	.st87{fill:#CD201F;stroke:#CD201F;stroke-width:6;stroke-linecap:round;stroke-linejoin:round;stroke-miterlimit:10;}
	.st88{fill:#FFFFFF;stroke:#FFFFFF;stroke-width:2;stroke-linecap:round;stroke-linejoin:round;stroke-miterlimit:10;}
</style>
<path class="st0" d="M1188,847v128h128V847H1188z M1307,966h-110V856h110V966z"/>
<path class="st0" d="M1045,847v128h128V847H1045z M1164,966h-110V856h110V966z"/>
<path class="st0" d="M904,847v128h128V847H904z M1023,966H913V856h110V966z"/>
<path class="st0" d="M760,847v128h128V847H760z M879,966H769V856h110V966z"/>
<path class="st0" d="M1188,991v128h128V991H1188z M1307,1110h-110v-110h110V1110z"/>
<path class="st0" d="M1045,991v128h128V991H1045z M1164,1110h-110v-110h110V1110z"/>
<path class="st0" d="M904,991v128h128V991H904z M1023,1110H913v-110h110V1110z"/>
<path class="st0" d="M757,991v128h128V991H757z M876,1110H766v-110h110V1110z"/>
<path class="st0" d="M613,991v128h128V991H613z M732,1110H622v-110h110V1110z"/>
<path class="st0" d="M474,991v128h128V991H474z M593,1110H483v-110h110V1110z"/>
<path class="st0" d="M340,991v128h128V991H340z M459,1110H349v-110h110V1110z"/>
<path class="st0" d="M198,991v128h128V991H198z M317,1110H207v-110h110V1110z"/>
<path class="st0" d="M1188,702v128h128V702H1188z M1307,821h-110V711h110V821z"/>
<path class="st0" d="M1045,702v128h128V702H1045z M1164,821h-110V711h110V821z"/>
<path class="st0" d="M904,702v128h128V702H904z M1023,821H913V711h110V821z"/>
<path class="st0" d="M760,702v128h128V702H760z M879,821H769V711h110V821z"/>
<path class="st0" d="M904,139v128h128V139H904z M1023,258H913V148h110V258z"/>
<rect x="1629" y="585" class="st2" width="100" height="80"/>
<polygon class="st3" points="1212,504 1292,504 1296,524 1208,524 "/>
<rect x="780" y="319" class="st4" width="20" height="44"/>
<rect x="511" y="442" class="st5" width="64" height="84"/>
<polyline class="st6" points="255,478 255,445 267,445 267,478 "/>
<path class="st0" d="M52,139v128h128V139H52z M171,258H61V148h110V258z"/>
<path class="st0" d="M198,139v128h128V139H198z M317,258H207V148h110V258z"/>
<polygon class="st8" points="110.9,80.5 157.8,63.3 152.3,52 128.5,61.4 101.1,41.7 89.4,44.9 103.6,69.7 92.5,74.1 79.7,64.3 
	74.2,68.6 90.3,86.3 "/>
<polygon class="st4" points="1103.6,211.9 1160.5,191 1153.9,177.3 1125,188.7 1091.7,164.7 1077.4,168.6 1094.7,198.7 
	1081.3,204.1 1065.7,192.2 1059,197.4 1078.6,218.9 "/>
<polygon class="st11" points="100.6,351.7 145.9,372.7 150,360.8 126.5,350.7 121.1,317.4 110.5,311.3 103.1,338.9 92.1,334.2 
	90,318.2 83.1,317.3 82,341.2 "/>
<polygon class="st4" points="699,187 681,161 663,187 "/>
<line class="st36" x1="681" y1="245" x2="681" y2="187"/>
<polygon class="st13" points="76,199 116,175 156,199 "/>
<line class="st36" x1="116" y1="239" x2="116" y2="199"/>
<line class="st37" x1="1561" y1="380" x2="1561" y2="352"/>
<polygon class="st38" points="1547,362 1562,320 1577,362 "/>
<line class="st37" x1="1512" y1="380" x2="1512" y2="352"/>
<polygon class="st38" points="1501,364 1513,330 1525,364 "/>
<line class="st37" x1="1538" y1="380" x2="1538" y2="352"/>
<polygon class="st38" points="1519,355 1539,303 1559,355 "/>
<polygon class="st13" points="262,231 282,191 302,231 "/>
<polygon class="st13" points="222,244 252,174 282,244 "/>
<line class="st13" x1="1065" y1="245" x2="1155" y2="245"/>
<path class="st0" d="M339,422v128h128V422H339z M458,541H348V431h110V541z"/>
<path class="st0" d="M479,422v128h128V422H479z M598,541H488V431h110V541z"/>
<path class="st0" d="M617,422v128h128V422H617z M736,541H626V431h110V541z"/>
<polygon class="st39" points="396.6,494.9 453.5,474 446.9,460.3 418,471.7 384.7,447.7 370.4,451.6 387.7,481.7 374.3,487.1 
	358.7,475.2 352,480.4 371.6,501.9 "/>
<line class="st40" x1="358" y1="528" x2="448" y2="528"/>
<line class="st13" x1="1207" y1="245" x2="1297" y2="245"/>
<polygon class="st4" points="1231.7,212.3 1288.8,232.9 1292.5,218.1 1263,208.3 1252.9,168.5 1239.4,162.3 1233.4,196.5 
	1219.6,192 1215.3,172.8 1206.9,172.5 1208,201.6 "/>
<line class="st36" x1="968" y1="230" x2="968" y2="177"/>
<polygon class="st4" points="986,177 968,151 950,177 "/>
<polygon class="st4" points="986,229 968,255 950,229 "/>
<polygon class="st4" points="665,94 705,64 665,34 "/>
<path class="st0" d="M339-1v128h128V-1H339z M458,118H348V8h110V118z"/>
<path class="st0" d="M1046,139v128h128V139H1046z M1165,258h-110V148h110V258z"/>
<path class="st0" d="M339,277v128h128V277H339z M458,396H348V286h110V396z"/>
<path class="st0" d="M198,422v128h128V422H198z M317,541H207V431h110V541z"/>
<path class="st0" d="M198,277v128h128V277H198z M317,396H207V286h110V396z"/>
<path class="st0" d="M479,0v128h128V0H479z M598,119H488V9h110V119z"/>
<g>
	<rect x="801" y="37" class="st4" width="16" height="54"/>
	<rect x="831" y="37" class="st4" width="16" height="54"/>
</g>
<rect x="516" y="37" class="st4" width="54" height="54"/>
<polygon class="st4" points="112.5,899 93,899 93,923 112.5,923 129,935 129,887 "/>
<polygon class="st4" points="250.5,52 230,52 230,76 250.5,76 267,88 267,40 "/>
<rect x="242" y="479" class="st1" width="38" height="50"/>
<circle class="st1" cx="245" cy="534.7" r="1.5"/>
<circle class="st1" cx="279.5" cy="534.7" r="1.5"/>
<path class="st0" d="M51,563v128h128V563H51z M170,682H60V572h110V682z"/>
<polyline class="st6" points="105,606 105,598 123,598 123,606 "/>
<rect x="73" y="607" class="st1" width="80" height="50"/>
<polyline class="st9" points="394,320 394,314 412,314 412,320 "/>
<rect x="363" y="323" class="st14" width="80" height="48"/>
<rect x="780" y="319" class="st9" width="80" height="44"/>
<rect x="860" y="331" class="st9" width="8" height="20"/>
<rect x="780" y="464" class="st41" width="80" height="44"/>
<rect x="860" y="476" class="st41" width="8" height="20"/>
<rect x="924" y="319" class="st9" width="80" height="44"/>
<rect x="1004" y="331" class="st9" width="8" height="20"/>
<polyline class="st9" points="256,333 256,299 268,299 268,333 "/>
<rect x="243" y="333" class="st14" width="38" height="50"/>
<circle class="st14" cx="245" cy="389.7" r="1.5"/>
<circle class="st14" cx="279.5" cy="389.7" r="1.5"/>
<path class="st0" d="M52,422v128h128V422H52z M171,541H61V431h110V541z"/>
<path class="st0" d="M52,278v128h128V278H52z M171,397H61V287h110V397z"/>
<path class="st0" d="M52,0v128h128V0H52z M171,119H61V9h110V119z"/>
<rect x="75" y="466" class="st42" width="80" height="50"/>
<circle class="st43" cx="106" cy="490" r="18"/>
<rect x="135.5" y="474.5" class="st44" width="10" height="10"/>
<circle class="st0" cx="106" cy="490" r="6"/>
<g>
	<rect x="1639" y="316" class="st22" width="80" height="50"/>
	<circle class="st45" cx="1669" cy="341" r="18"/>
	<rect x="1698.5" y="325.5" class="st1" width="10" height="10"/>
	<circle class="st22" cx="1669" cy="341" r="6"/>
</g>
<rect x="498" y="503.4" class="st46" width="90" height="31.3"/>
<text transform="matrix(1 0 0 1 519.637 515.5091)" class="st0 st47 st48">PASS</text>
<ellipse class="st49" cx="543" cy="464" rx="8" ry="9"/>
<path class="st49" d="M530,489c0-6.6,5.8-12,13-12s13,5.4,13,12H530z"/>
<ellipse class="st39" cx="543" cy="610" rx="18" ry="19"/>
<path class="st39" d="M516,659c0-15,12.1-26,27-26s27,11,27,26H516z"/>
<rect x="649" y="442" class="st41" width="64" height="84"/>
<rect x="636" y="503.4" class="st46" width="90" height="31.3"/>
<text transform="matrix(1 0 0 1 657.6371 515.5091)" class="st24 st47 st48">PASS</text>
<ellipse class="st39" cx="681" cy="464" rx="8" ry="9"/>
<path class="st39" d="M668,489c0-6.6,5.8-12,13-12s13,5.4,13,12H668z"/>
<line class="st36" x1="941" y1="204" x2="995" y2="204"/>
<line class="st36" x1="824" y1="230" x2="824" y2="177"/>
<polygon class="st4" points="842,177 824,151 806,177 "/>
<polygon class="st4" points="842,229 824,255 806,229 "/>
<polygon class="st4" points="997,221.5 1023,203.5 997,185.5 "/>
<polygon class="st4" points="941,221.5 915,203.5 941,185.5 "/>
<line class="st36" x1="402" y1="230" x2="402" y2="177"/>
<line class="st36" x1="375" y1="204" x2="429" y2="204"/>
<circle class="st36" cx="1388.8" cy="196.8" r="27"/>
<line class="st36" x1="1389" y1="213" x2="1389" y2="181"/>
<line class="st36" x1="1373" y1="197" x2="1405" y2="197"/>
<line class="st36" x1="1408.8" y1="216.8" x2="1428.2" y2="236.2"/>
<g>
	<path class="st36" d="M1386.4,37.7c-10,3.6-18.4,13.7-18.4,25.6c0,14.9,12.2,27,27.1,27s26.9-12.1,26.9-27
		c0-11.6-7.6-21.4-17.6-25.3"/>
</g>
<line class="st36" x1="1395" y1="64" x2="1395" y2="32"/>
<line class="st36" x1="517" y1="204" x2="571" y2="204"/>
<rect x="924" y="319" class="st13" width="40" height="44"/>
<rect x="941" y="459" class="st21" width="54" height="54"/>
<rect x="951" y="432" class="st23" width="34" height="27"/>
<rect x="951" y="513" class="st23" width="34" height="27"/>
<polygon class="st5" points="1095,432 1123,432 1129,459 1089,459 "/>
<polygon class="st5" points="1095,540 1123,540 1129,513 1089,513 "/>
<rect x="1065" y="319" class="st9" width="80" height="44"/>
<rect x="1145" y="331" class="st9" width="8" height="20"/>
<rect x="1065" y="319" class="st13" width="60" height="44"/>
<rect x="1208" y="319" class="st13" width="80" height="44"/>
<rect x="1288" y="331" class="st9" width="8" height="20"/>
<rect x="1082" y="459" class="st50" width="54" height="54"/>
<rect x="1083" y="577" class="st51" width="52" height="97"/>
<rect x="942" y="577" class="st52" width="52" height="97"/>
<rect x="1212" y="449" class="st50" width="80" height="54"/>
<line class="st53" x1="1208" y1="524" x2="1296" y2="524"/>
<polygon class="st3" points="1206.5,658 1297.5,658 1302,654 1202,654 "/>
<rect x="1212" y="594" class="st50" width="80" height="54"/>
<rect x="1212" y="739" class="st39" width="80" height="54"/>
<rect x="1345" y="585" class="st52" width="100" height="80"/>
<polygon class="st3" points="1382.3,504 1407.7,504 1409,524 1381,524 "/>
<rect x="1355" y="449" class="st50" width="80" height="54"/>
<line class="st3" x1="1366" y1="524" x2="1422" y2="524"/>
<polygon class="st3" points="1526.1,504 1547.9,504 1549,524 1525,524 "/>
<line class="st3" x1="1508" y1="524" x2="1565" y2="524"/>
<circle class="st3" cx="1109" cy="669" r="0"/>
<rect x="1089" y="590" class="st54" width="40" height="68"/>
<circle class="st3" cx="968" cy="668" r="0"/>
<rect x="948" y="590" class="st54" width="40" height="68"/>
<rect x="1345" y="585" class="st2" width="100" height="4"/>
<polygon class="st2" points="1345,665 1445,665 1445,665 1345,665 "/>
<circle class="st39" cx="1348" cy="587" r="0"/>
<circle class="st55" cx="1357" cy="587" r="0"/>
<circle class="st56" cx="1366" cy="587" r="0"/>
<rect x="1345" y="726" class="st57" width="100" height="80"/>
<rect x="1345" y="726" class="st2" width="100" height="4"/>
<polygon class="st2" points="1345,806 1445,806 1445,806 1345,806 "/>
<polygon class="st55" points="1349,742 1357,742 1357,742 1349,742 "/>
<polygon class="st58" points="1367,742 1383,742 1383,742 1367,742 "/>
<polygon class="st59" points="1393,742 1401,742 1401,742 1393,742 "/>
<polygon class="st59" points="1349,754 1375,754 1375,754 1349,754 "/>
<polygon class="st60" points="1385,754 1411,754 1411,754 1385,754 "/>
<polygon class="st61" points="1411,742 1441,742 1441,742 1412,742 "/>
<polygon class="st58" points="1349,766 1357,766 1357,766 1349,766 "/>
<polygon class="st61" points="1367,766 1383,766 1383,766 1367,766 "/>
<polygon class="st55" points="1393,766 1401,766 1401,766 1393,766 "/>
<polygon class="st61" points="1411,766 1441,766 1441,766 1412,766 "/>
<polygon class="st58" points="1349,790 1357,790 1357,790 1349,790 "/>
<polygon class="st58" points="1367,790 1383,790 1383,790 1367,790 "/>
<polygon class="st58" points="1393,790 1401,790 1401,790 1393,790 "/>
<polygon class="st58" points="1411,790 1441,790 1441,790 1412,790 "/>
<circle class="st39" cx="1348" cy="728" r="0"/>
<circle class="st55" cx="1357" cy="728" r="0"/>
<circle class="st56" cx="1366" cy="728" r="0"/>
<rect x="1487" y="585" class="st52" width="100" height="80"/>
<rect x="1487" y="585" class="st2" width="100" height="4"/>
<polygon class="st2" points="1487,665 1587,665 1587,665 1487,665 "/>
<circle class="st39" cx="1490" cy="587" r="0"/>
<circle class="st55" cx="1499" cy="587" r="0"/>
<circle class="st56" cx="1508" cy="587" r="0"/>
<rect x="1492" y="619.2" class="st46" width="90" height="13.6"/>
<text transform="matrix(1 0 0 1 1519.4506 631.3097)" class="st24 st47 st48">404</text>
<rect x="1629" y="595" class="st52" width="100" height="70"/>
<polygon class="st2" points="1629,665 1729,665 1729,665 1629,665 "/>
<circle class="st39" cx="1632" cy="587" r="0"/>
<circle class="st55" cx="1641" cy="587" r="0"/>
<circle class="st56" cx="1650" cy="587" r="0"/>
<g>
	<rect x="1649" y="631" class="st63" width="60" height="4"/>
	<rect x="1634" y="609.4" class="st46" width="90" height="13.6"/>
	<text transform="matrix(1 0 0 1 1650.6683 621.4872)"><tspan x="0" y="0" class="st26 st47 st48">G</tspan><tspan x="12.9" y="0" class="st24 st47 st48">o</tspan><tspan x="22.7" y="0" class="st64 st47 st48">o</tspan><tspan x="32.5" y="0" class="st26 st47 st48">g</tspan><tspan x="42.6" y="0" class="st27 st47 st48">l</tspan><tspan x="47.3" y="0" class="st24 st47 st48">e</tspan></text>
</g>
<rect x="1489" y="871" class="st65" width="100" height="80"/>
<rect x="1489" y="871" class="st2" width="100" height="4"/>
<polygon class="st2" points="1489,951 1589,951 1589,951 1489,951 "/>
<circle class="st39" cx="1492" cy="873" r="0"/>
<circle class="st55" cx="1501" cy="873" r="0"/>
<circle class="st56" cx="1510" cy="873" r="0"/>
<rect x="1496.7" y="901.4" class="st46" width="84.7" height="13.6"/>
<text transform="matrix(1 0 0 1 1502.4607 913.4872)" class="st66 st47 st48">facebook</text>
<circle class="st3" cx="1537" cy="476" r="25"/>
<circle class="st50" cx="1537" cy="476" r="15"/>
<circle class="st50" cx="1679" cy="486" r="15"/>
<line class="st58" x1="1421" y1="754" x2="1441" y2="754"/>
<polygon class="st59" points="1349,778 1375,778 1375,778 1349,778 "/>
<polygon class="st58" points="1385,778 1411,778 1411,778 1385,778 "/>
<line class="st60" x1="1421" y1="778" x2="1441" y2="778"/>
<polyline class="st9" points="804,651 780,627 804,603 "/>
<polyline class="st9" points="843,651 867,627 843,603 "/>
<polyline class="st9" points="815.8,651 823.8,627 831.8,603 "/>
<circle class="st67" cx="681" cy="625" r="30"/>
<line class="st67" x1="701" y1="602.7" x2="661" y2="647.3"/>
<rect x="1212" y="751" class="st68" width="80" height="6"/>
<polygon class="st4" points="1116,726 1136,747 1136,806 1082,806 1082,726 "/>
<polygon class="st4" points="1116,726 1116,747 1136,747 "/>
<polygon class="st41" points="831,726 851,747 851,806 797,806 797,726 "/>
<polygon class="st41" points="831,726 831,747 851,747 "/>
<polygon class="st4" points="969,732 989,753 989,812 935,812 935,732 "/>
<polygon class="st4" points="970,731 970,752 990,752 "/>
<polygon class="st4" points="981,720 1001,741 1001,800 947,800 947,720 "/>
<polygon class="st4" points="981,720 981,741 1001,741 "/>
<line class="st50" x1="932" y1="886" x2="1004" y2="886"/>
<line class="st50" x1="932" y1="902" x2="1004" y2="902"/>
<line class="st50" x1="932" y1="919" x2="1004" y2="919"/>
<line class="st50" x1="932" y1="936" x2="1004" y2="936"/>
<polyline class="st9" points="1715,1035 1715,1025 1651,1025 1651,1035 "/>
<line class="st50" x1="1683" y1="1025" x2="1683" y2="1083"/>
<line class="st50" x1="1678" y1="1083" x2="1688" y2="1083"/>
<line class="st50" x1="1360" y1="1035" x2="1432" y2="1035"/>
<line class="st50" x1="1360" y1="1055" x2="1432" y2="1055"/>
<line class="st50" x1="1360" y1="1075" x2="1432" y2="1075"/>
<line class="st50" x1="1234" y1="1035" x2="1288" y2="1035"/>
<line class="st50" x1="1216" y1="1035" x2="1222" y2="1035"/>
<line class="st50" x1="1216" y1="1055" x2="1222" y2="1055"/>
<line class="st50" x1="1216" y1="1075" x2="1222" y2="1075"/>
<line class="st50" x1="1234" y1="1055" x2="1288" y2="1055"/>
<line class="st50" x1="1234" y1="1075" x2="1288" y2="1075"/>
<line class="st50" x1="1109" y1="1025" x2="1109" y2="1083"/>
<line class="st50" x1="1103" y1="1083" x2="1115" y2="1083"/>
<line class="st50" x1="1103" y1="1025" x2="1115" y2="1025"/>
<line class="st50" x1="1513" y1="1029" x2="1565" y2="1081"/>
<line class="st50" x1="1513" y1="1081" x2="1565" y2="1029"/>
<path class="st0" d="M339,702v128h128V702H339z M458,821H348V711h110V821z"/>
<polyline class="st9" points="394,792 420,766 394,740 "/>
<line class="st50" x1="520" y1="323" x2="556" y2="359"/>
<line class="st50" x1="520" y1="359" x2="556" y2="323"/>
<path class="st0" d="M339,562v128h128V562H339z M458,681H348V571h110V681z"/>
<path class="st0" d="M476,702v128h128V702H476z M595,821H485V711h110V821z"/>
<path class="st0" d="M339,847v128h128V847H339z M458,966H348V856h110V966z"/>
<path class="st0" d="M474,847v128h128V847H474z M593,966H483V856h110V966z"/>
<path class="st0" d="M479,562v128h128V562H479z M598,681H488V571h110V681z"/>
<line class="st50" x1="968" y1="1019" x2="968" y2="1091"/>
<line class="st50" x1="787" y1="886" x2="859" y2="886"/>
<line class="st50" x1="799" y1="902" x2="847" y2="902"/>
<line class="st50" x1="787" y1="919" x2="859" y2="919"/>
<line class="st50" x1="799" y1="936" x2="847" y2="936"/>
<line class="st50" x1="643" y1="886" x2="715" y2="886"/>
<line class="st50" x1="643" y1="902" x2="691" y2="902"/>
<line class="st50" x1="643" y1="919" x2="715" y2="919"/>
<line class="st50" x1="643" y1="936" x2="691" y2="936"/>
<line class="st50" x1="502" y1="886" x2="574" y2="886"/>
<line class="st50" x1="526" y1="902" x2="574" y2="902"/>
<line class="st50" x1="502" y1="919" x2="574" y2="919"/>
<line class="st50" x1="526" y1="936" x2="574" y2="936"/>
<line class="st50" x1="367" y1="936" x2="439" y2="936"/>
<rect x="944" y="1032" class="st50" width="48" height="18"/>
<rect x="936" y="1062" class="st69" width="64" height="18"/>
<g>
	<line class="st50" x1="298" y1="1055" x2="226" y2="1055"/>
	<rect x="267" y="1031" class="st50" width="18" height="48"/>
	<rect x="237" y="1023" class="st69" width="18" height="64"/>
</g>
<line class="st50" x1="859" y1="1019" x2="859" y2="1091"/>
<rect x="799" y="1032" class="st50" width="48" height="18"/>
<rect x="785" y="1062" class="st69" width="62" height="18"/>
<line class="st50" x1="643" y1="1019" x2="643" y2="1091"/>
<rect x="653" y="1032" class="st50" width="48" height="18"/>
<rect x="653" y="1062" class="st69" width="62" height="18"/>
<g>
	<line class="st50" x1="574" y1="1019" x2="502" y2="1019"/>
	<rect x="543" y="1029" class="st50" width="18" height="48"/>
	<rect x="513" y="1029" class="st69" width="18" height="62"/>
</g>
<line class="st50" x1="439" y1="1091" x2="367" y2="1091"/>
<rect x="408" y="1033" class="st50" width="18" height="48"/>
<rect x="378" y="1019" class="st69" width="18" height="62"/>
<polyline class="st9" points="366,920 396,904.1 412,912 442,882 "/>
<polygon class="st9" points="640,736 658,736 664,748 720,748 720,794 640,794 "/>
<line class="st9" x1="720" y1="748" x2="640" y2="748"/>
<polyline class="st9" points="580,773 580,795 500,795 500,773 "/>
<line class="st9" x1="540" y1="723" x2="540" y2="775"/>
<polyline class="st9" points="560,763 540,781 520,763 "/>
<rect x="1356" y="884" class="st52" width="80" height="54"/>
<polygon class="st2" points="1356,884 1396,915 1436,884 "/>
<rect x="1653" y="884" class="st2" width="60" height="54"/>
<rect x="1069" y="884" class="st41" width="80" height="54"/>
<polygon class="st41" points="1069,884 1109,915 1149,884 "/>
<rect x="1659" y="899" class="st49" width="48" height="33"/>
<rect x="1638" y="905.7" class="st46" width="90" height="22.6"/>
<text transform="matrix(1 0 0 1 1668.6508 924.5499)" class="st25 st47 st71">31</text>
<line class="st72" x1="1659" y1="880" x2="1659" y2="886"/>
<line class="st72" x1="1707" y1="880" x2="1707" y2="886"/>
<line class="st72" x1="1675" y1="880" x2="1675" y2="886"/>
<line class="st72" x1="1691" y1="880" x2="1691" y2="886"/>
<path class="st9" d="M1641,488c0,0,4,13,38,13s38-13,38-13s-4-17-38-17S1641,488,1641,488z"/>
<polygon class="st14" points="1395,364 1417.9,376 1413.5,350.7 1432,332.7 1406.4,329 1395,306 1383.6,329 1358,332.7 
	1376.5,350.7 1372.1,376 "/>
<circle class="st9" cx="403" cy="626" r="28"/>
<path class="st0" d="M198,562v128h128V562H198z M317,681H207V571h110V681z"/>
<circle class="st9" cx="262" cy="626" r="20"/>
<g>
	<path class="st4" d="M690,370c-1.4-5.8-4.9-10-9.1-10c-4,0-7.5,3.9-8.9,9.4"/>
</g>
<g>
	<g>
		<line class="st4" x1="653" y1="329" x2="661" y2="337"/>
		<line class="st4" x1="661" y1="329" x2="653" y2="337"/>
	</g>
	<g>
		<line class="st4" x1="701" y1="329" x2="709" y2="337"/>
		<line class="st4" x1="709" y1="329" x2="701" y2="337"/>
	</g>
</g>
<circle class="st36" cx="1109" cy="64" r="18"/>
<line class="st36" x1="1109" y1="20" x2="1109" y2="36"/>
<line class="st36" x1="1077.5" y1="33.2" x2="1089" y2="44.4"/>
<line class="st36" x1="1065" y1="65" x2="1081" y2="64.6"/>
<line class="st36" x1="1078.9" y1="96.1" x2="1089.9" y2="84.4"/>
<line class="st36" x1="1110.9" y1="108" x2="1110.2" y2="92"/>
<line class="st36" x1="1141.8" y1="93.4" x2="1129.8" y2="82.7"/>
<line class="st36" x1="1152.9" y1="61.1" x2="1136.9" y2="62.2"/>
<line class="st36" x1="1137.6" y1="30.6" x2="1127.2" y2="42.7"/>
<circle class="st36" cx="1252" cy="64" r="18"/>
<line class="st36" x1="1252" y1="28" x2="1252" y2="36"/>
<line class="st36" x1="1226.3" y1="38.8" x2="1232" y2="44.4"/>
<line class="st36" x1="1216" y1="64.8" x2="1224" y2="64.6"/>
<line class="st36" x1="1227.4" y1="90.3" x2="1232.9" y2="84.4"/>
<line class="st36" x1="1253.6" y1="100" x2="1253.2" y2="92"/>
<line class="st36" x1="1278.8" y1="88" x2="1272.9" y2="82.7"/>
<line class="st36" x1="1287.9" y1="61.6" x2="1279.9" y2="62.2"/>
<line class="st36" x1="1275.4" y1="36.7" x2="1270.2" y2="42.7"/>
<path class="st9" d="M276.7,77.7c2.7-3.9,4.3-8.6,4.3-13.7c0-5.1-1.6-9.8-4.3-13.7"/>
<polygon class="st4" points="250.5,899 230,899 230,923 250.5,923 267,935 267,887 "/>
<path class="st9" d="M285.1,931.1c4.3-5.6,6.9-12.6,6.9-20.1s-2.6-14.6-6.9-20.1"/>
<path class="st9" d="M276.7,924.7c2.7-3.9,4.3-8.6,4.3-13.7c0-5.1-1.6-9.8-4.3-13.7"/>
<path class="st0" d="M51,704v128h128V704H51z M170,823H60V713h110V823z"/>
<path class="st0" d="M198,847v128h128V847H198z M317,966H207V856h110V966z"/>
<path class="st0" d="M904,0v128h128V0H904z M1023,119H913V9h110V119z"/>
<path class="st0" d="M198,0v128h128V0H198z M317,119H207V9h110V119z"/>
<path class="st0" d="M51,847v128h128V847H51z M170,966H60V856h110V966z"/>
<path class="st0" d="M617,0v128h128V0H617z M736,119H626V9h110V119z"/>
<path class="st0" d="M760,0v128h128V0H760z M879,119H769V9h110V119z"/>
<path class="st0" d="M617,139v128h128V139H617z M736,258H626V148h110V258z"/>
<path class="st0" d="M760,140v128h128V140H760z M879,259H769V149h110V259z"/>
<polygon class="st4" points="103.5,756 83,756 83,780 103.5,780 120,792 120,744 "/>
<path class="st9" d="M146.5,794.5c5.9-7.2,9.5-16.5,9.5-26.5c0-10.1-3.5-19.3-9.5-26.5"/>
<path class="st9" d="M138.1,788.1c4.3-5.6,6.9-12.6,6.9-20.1s-2.6-14.6-6.9-20.1"/>
<path class="st9" d="M129.7,781.7c2.7-3.9,4.3-8.6,4.3-13.7c0-5.1-1.6-9.8-4.3-13.7"/>
<path class="st0" d="M52,993v128h128V993H52z M171,1112H61v-110h110V1112z"/>
<rect x="80" y="1025" class="st78" width="72" height="64"/>
<path class="st79" d="M76,1025h20v24c0,0,0,6-10,6s-10-6-10-6V1025z"/>
<path class="st76" d="M96,1025h20v24c0,0,0,6-10,6s-10-6-10-6V1025z"/>
<path class="st79" d="M116,1025h20v24c0,0,0,6-10,6s-10-6-10-6V1025z"/>
<path class="st76" d="M136,1025h20v24c0,0,0,6-10,6s-10-6-10-6V1025z"/>
<rect x="80" y="1073" class="st77" width="72" height="16"/>
<g>
	<polygon class="st4" points="380,93 420,63 380,33 	"/>
	<line class="st4" x1="426" y1="33" x2="426" y2="93"/>
</g>
<path class="st0" d="M1045,0v128h128V0H1045z M1164,119h-110V9h110V119z"/>
<path class="st0" d="M1188,0v128h128V0H1188z M1307,119h-110V9h110V119z"/>
<path class="st0" d="M1331,0v128h128V0H1331z M1450,119h-110V9h110V119z"/>
<path class="st0" d="M480,139v128h128V139H480z M599,258H489V148h110V258z"/>
<path class="st0" d="M1188,277v128h128V277H1188z M1307,396h-110V286h110V396z"/>
<g>
	<path class="st81" d="M279.4,744.1c14.8,9.6,19,29.4,9.4,44.3c-9.6,14.8-29.4,19-44.3,9.4c-14.8-9.6-19-29.4-9.4-44.3
		c2.3-3.6,5.2-6.5,8.5-8.8"/>
	<polygon class="st4" points="289.2,729 257.6,730 269.6,759.2 	"/>
</g>
<line class="st36" x1="940" y1="65" x2="994" y2="65"/>
<polygon class="st4" points="996,82.5 1022,64.5 996,46.5 "/>
<polygon class="st4" points="940,82.5 914,64.5 940,46.5 "/>
<g>
	<rect x="1202" y="871" class="st62" width="100" height="80"/>
	<rect x="1202" y="871" class="st2" width="100" height="4"/>
	<polygon class="st2" points="1202.3,951 1302.1,951 1302.1,951 1202.3,951 	"/>
	<circle class="st82" cx="1205.3" cy="873.2" r="0"/>
	<circle class="st83" cx="1214.3" cy="873.2" r="0"/>
	<circle class="st84" cx="1223.3" cy="873.2" r="0"/>
	<g id="vimeo_2_" class="st70">
		<g id="vimeo_3_">
			<g>
				<path class="st66" d="M1253.8,905.4c1.1-0.3,3.1-0.6,3.5,0.5c0.5,3.5-1.9,6.4-4.1,8.2c-4.2-2.3-1-12.8-5.5-14.6
					c-2.3-0.9-4.3,1.2-6,2.6c-1.1,0.9-3.1,2.4-3.1,3.6v0c0,0.3,0.1,0.5,0.4,0.7c0.9,1.5,1.7-1,3.3-0.5c3.5,2.9,2.4,15.7,7.6,16.6
					c2,0.3,4.6-1.5,6-2.7c1.9-1.7,4.1-4.5,5.7-6.8c0,0,4-5.3,3.5-9.8C1264.4,895.9,1253.7,900,1253.8,905.4z"/>
			</g>
		</g>
	</g>
</g>
<g>
	<rect x="1629" y="726" class="st85" width="100" height="80"/>
	<rect x="1629" y="726" class="st2" width="100" height="4"/>
	<polygon class="st2" points="1629.3,806 1729.1,806 1729.1,806 1629.3,806 	"/>
	<circle class="st82" cx="1632.3" cy="728.2" r="0"/>
	<circle class="st83" cx="1641.3" cy="728.2" r="0"/>
	<circle class="st84" cx="1650.3" cy="728.2" r="0"/>
	<g>
		<path class="st86" d="M1692.8,769.8c-0.2-0.4-0.3-0.8-0.5-1.1c-0.2-0.6-0.5-1.1-0.7-1.6l0,0c-2.1-4.6-4.4-9.2-6.8-13.8l-0.1-0.2
			c-0.2-0.5-0.5-0.9-0.7-1.4c-0.3-0.6-0.6-1.1-1.1-1.7c-1-1.2-2.4-1.9-3.9-1.9c-1.5,0-2.9,0.7-3.9,1.8c-0.5,0.6-0.8,1.1-1.1,1.7
			c-0.2,0.5-0.5,1-0.7,1.4l-0.1,0.2c-2.4,4.6-4.7,9.2-6.8,13.8l0,0.1c-0.2,0.5-0.5,1-0.7,1.6c-0.2,0.3-0.3,0.7-0.5,1.1
			c-0.4,1.1-0.5,2.2-0.4,3.3c0.3,2.3,1.9,4.2,4,5.1c0.8,0.3,1.6,0.5,2.5,0.5c0.2,0,0.6,0,0.8-0.1c1-0.1,2-0.5,3.1-1
			c1.3-0.7,2.4-1.7,3.8-3.2c1.3,1.5,2.6,2.5,3.8,3.2c1,0.6,2,0.9,3.1,1c0.2,0,0.6,0.1,0.8,0.1c0.9,0,1.7-0.2,2.5-0.5
			c2.1-0.9,3.6-2.8,4-5.1C1693.3,772,1693.2,770.9,1692.8,769.8L1692.8,769.8z M1679,771.3c-1.7-2.1-2.7-4-3.1-5.7
			c-0.2-0.7-0.2-1.3-0.1-1.9c0.1-0.5,0.2-0.9,0.5-1.3c0.6-0.8,1.6-1.3,2.7-1.3c1.1,0,2.1,0.5,2.7,1.3c0.2,0.4,0.4,0.8,0.5,1.3
			c0.1,0.6,0.1,1.2-0.1,1.9C1681.7,767.3,1680.6,769.2,1679,771.3L1679,771.3z M1691.2,772.8c-0.2,1.6-1.3,3-2.8,3.6
			c-0.7,0.3-1.5,0.4-2.3,0.3c-0.8-0.1-1.5-0.3-2.3-0.8c-1.1-0.6-2.2-1.6-3.5-3c2-2.5,3.2-4.7,3.7-6.8c0.2-0.9,0.2-1.8,0.2-2.6
			c-0.1-0.8-0.4-1.5-0.8-2.1c-0.9-1.4-2.5-2.2-4.3-2.2c-1.8,0-3.4,0.8-4.3,2.2c-0.4,0.6-0.7,1.3-0.8,2.1c-0.1,0.8-0.1,1.7,0.2,2.6
			c0.5,2,1.7,4.3,3.7,6.8c-1.3,1.4-2.4,2.4-3.5,3c-0.8,0.5-1.6,0.7-2.3,0.8c-0.8,0.1-1.6,0-2.3-0.3c-1.5-0.6-2.6-2-2.8-3.6
			c-0.1-0.8,0-1.5,0.3-2.4c0.1-0.3,0.2-0.6,0.4-1c0.2-0.5,0.5-1,0.7-1.5l0-0.1c2.1-4.6,4.4-9.2,6.7-13.7l0.1-0.2
			c0.2-0.5,0.5-0.9,0.7-1.4c0.2-0.5,0.5-0.9,0.9-1.3c0.6-0.7,1.5-1.1,2.4-1.1s1.8,0.4,2.4,1.1c0.3,0.4,0.6,0.9,0.9,1.3
			c0.2,0.5,0.5,0.9,0.7,1.4l0.1,0.2c2.3,4.6,4.6,9.2,6.7,13.8v0c0.2,0.5,0.5,1,0.7,1.5c0.2,0.4,0.3,0.7,0.4,1
			C1691.2,771.2,1691.3,772,1691.2,772.8L1691.2,772.8z"/>
	</g>
</g>
<g>
	<rect x="1487" y="726" class="st87" width="100" height="80"/>
	<rect x="1487" y="726" class="st2" width="100" height="4"/>
	<polygon class="st2" points="1487.3,806 1587.1,806 1587.1,806 1487.3,806 	"/>
	<circle class="st82" cx="1490.3" cy="728.2" r="0"/>
	<circle class="st83" cx="1499.3" cy="728.2" r="0"/>
	<circle class="st84" cx="1508.3" cy="728.2" r="0"/>
	<polygon class="st88" points="1530,775.9 1546.3,765.9 1530,755.9 	"/>
</g>
<path class="st0" d="M1473,140v128h128V140H1473z M1592,259h-110V149h110V259z"/>
<g>
	<rect x="1501" y="33" class="st76" width="72" height="64"/>
	<path class="st76" d="M1497,33h20v24c0,0,0,6-10,6s-10-6-10-6V33z"/>
	<path class="st38" d="M1517,33h20v24c0,0,0,6-10,6s-10-6-10-6V33z"/>
	<path class="st76" d="M1537,33h20v24c0,0,0,6-10,6s-10-6-10-6V33z"/>
	<path class="st38" d="M1557,33h20v24c0,0,0,6-10,6s-10-6-10-6V33z"/>
	<rect x="1501" y="81" class="st77" width="72" height="16"/>
</g>
<rect x="1643" y="171" class="st76" width="72" height="64"/>
<rect x="1643" y="219" class="st22" width="72" height="16"/>
<path class="st76" d="M1639,171h20v24c0,0,0,6-10,6s-10-6-10-6V171z"/>
<path class="st1" d="M1659,171h20v24c0,0,0,6-10,6s-10-6-10-6V171z"/>
<path class="st76" d="M1679,171h20v24c0,0,0,6-10,6s-10-6-10-6V171z"/>
<path class="st1" d="M1699,171h20v24c0,0,0,6-10,6s-10-6-10-6V171z"/>
<rect x="1502" y="172" class="st76" width="72" height="64"/>
<rect x="1502" y="220" class="st17" width="72" height="16"/>
<path class="st76" d="M1498,172h20v24c0,0,0,6-10,6s-10-6-10-6V172z"/>
<path class="st16" d="M1518,172h20v24c0,0,0,6-10,6s-10-6-10-6V172z"/>
<path class="st76" d="M1538,172h20v24c0,0,0,6-10,6s-10-6-10-6V172z"/>
<path class="st16" d="M1558,172h20v24c0,0,0,6-10,6s-10-6-10-6V172z"/>
<path class="st0" d="M1615,1v128h128V1H1615z M1734,120h-110V10h110V120z"/>
<path class="st0" d="M1615,139v128h128V139H1615z M1734,258h-110V148h110V258z"/>
<path class="st0" d="M1473,1v128h128V1H1473z M1592,120h-110V10h110V120z"/>
<rect x="1643" y="33" class="st76" width="72" height="64"/>
<rect x="1643" y="81" class="st20" width="72" height="16"/>
<path class="st76" d="M1639,33h20v24c0,0,0,6-10,6s-10-6-10-6V33z"/>
<path class="st19" d="M1659,33h20v24c0,0,0,6-10,6s-10-6-10-6V33z"/>
<path class="st76" d="M1679,33h20v24c0,0,0,6-10,6s-10-6-10-6V33z"/>
<path class="st19" d="M1699,33h20v24c0,0,0,6-10,6s-10-6-10-6V33z"/>
<path class="st0" d="M198,702v128h128V702H198z M317,821H207V711h110V821z"/>
<path class="st0" d="M338,139v128h128V139H338z M457,258H347V148h110V258z"/>
<path class="st0" d="M1045,277v128h128V277H1045z M1164,396h-110V286h110V396z"/>
<path class="st0" d="M904,277v128h128V277H904z M1023,396H913V286h110V396z"/>
<path class="st0" d="M760,277v128h128V277H760z M879,396H769V286h110V396z"/>
<path class="st0" d="M1188,422v128h128V422H1188z M1307,541h-110V431h110V541z"/>
<path class="st0" d="M1331,139v128h128V139H1331z M1450,258h-110V148h110V258z"/>
<path class="st0" d="M1331,277v128h128V277H1331z M1450,396h-110V286h110V396z"/>
<path class="st0" d="M1331,422v128h128V422H1331z M1450,541h-110V431h110V541z"/>
<path class="st0" d="M1045,422v128h128V422H1045z M1164,541h-110V431h110V541z"/>
<path class="st0" d="M904,422v128h128V422H904z M1023,541H913V431h110V541z"/>
<path class="st0" d="M760,422v128h128V422H760z M879,541H769V431h110V541z"/>
<path class="st0" d="M1188,561v128h128V561H1188z M1307,680h-110V570h110V680z"/>
<path class="st0" d="M1331,847v128h128V847H1331z M1450,966h-110V856h110V966z"/>
<path class="st0" d="M1331,991v128h128V991H1331z M1450,1110h-110v-110h110V1110z"/>
<path class="st0" d="M1331,702v128h128V702H1331z M1450,821h-110V711h110V821z"/>
<path class="st0" d="M1331,561v128h128V561H1331z M1450,680h-110V570h110V680z"/>
<path class="st0" d="M1475,847v128h128V847H1475z M1594,966h-110V856h110V966z"/>
<path class="st0" d="M1475,991v128h128V991H1475z M1594,1110h-110v-110h110V1110z"/>
<path class="st0" d="M1619,847v128h128V847H1619z M1738,966h-110V856h110V966z"/>
<path class="st0" d="M1619,991v128h128V991H1619z M1738,1110h-110v-110h110V1110z"/>
<path class="st0" d="M1473,702v128h128V702H1473z M1592,821h-110V711h110V821z"/>
<path class="st0" d="M1473,561v128h128V561H1473z M1592,680h-110V570h110V680z"/>
<path class="st0" d="M1615,702v128h128V702H1615z M1734,821h-110V711h110V821z"/>
<path class="st0" d="M1615,561v128h128V561H1615z M1734,680h-110V570h110V680z"/>
<path class="st0" d="M1473,422v128h128V422H1473z M1592,541h-110V431h110V541z"/>
<path class="st0" d="M1615,422v128h128V422H1615z M1734,541h-110V431h110V541z"/>
<path class="st0" d="M1476,277v128h128V277H1476z M1595,396h-110V286h110V396z"/>
<path class="st0" d="M1615,277v128h128V277H1615z M1734,396h-110V286h110V396z"/>
<path class="st0" d="M1045,561v128h128V561H1045z M1164,680h-110V570h110V680z"/>
<path class="st0" d="M904,561v128h128V561H904z M1023,680H913V570h110V680z"/>
<path class="st0" d="M760,561v128h128V561H760z M879,680H769V570h110V680z"/>
<path class="st0" d="M617,847v128h128V847H617z M736,966H626V856h110V966z"/>
<path class="st0" d="M617,702v128h128V702H617z M736,821H626V711h110V821z"/>
<path class="st0" d="M617,561v128h128V561H617z M736,680H626V570h110V680z"/>
<path class="st0" d="M617,277v128h128V277H617z M736,396H626V286h110V396z"/>
<path class="st0" d="M1188,139v128h128V139H1188z M1307,258h-110V148h110V258z"/>
<path class="st0" d="M474,277v128h128V277H474z M593,396H483V286h110V396z"/>
</svg>
